<svg id="Laag_1" data-name="Laag 1" xmlns="http://www.w3.org/2000/svg" viewBox="0 0 1129.34 34.05"><defs><style>.cls-1{fill:#440f30;}</style></defs><title>seperator</title><path class="cls-1" d="M215.83,5.49c9.49,0,9.38,0,9.34,9.57,0,2.93-.61,4.3-3.84,4-3-.27-6,0-9-.08-1.76-.05-2.74.3-2.8,2.4s.71,2.89,2.86,2.85c5-.11,10-.12,15,0,2.38.06,3.2-.8,3.14-3.19-.13-5.65-.18-11.31,0-17,.11-3-.81-4-3.92-4-11.48.17-23,.15-34.43,0-2.87,0-3.71.88-3.64,3.67.17,6.65-.15,13.32.14,20,.15,3.62-.7,5.08-4.62,4.85-5.63-.33-11.3-.11-17-.08-9.77,0-9.77.06-9.49-9.76a6.68,6.68,0,0,0,0-1c-.28-2.29.9-2.81,2.95-2.74,3.32.12,6.65-.07,10,.06,2.07.07,2.51-.88,2.54-2.69,0-2-.74-2.58-2.64-2.55-5.15.08-10.31.11-15.47,0-2.73-.06-2.81,1.52-2.79,3.53,0,5.66.15,11.32-.05,17-.1,2.94,1,3.69,3.79,3.61,5.65-.17,11.31,0,17-.06,5.32,0,10.65-.22,16,.07,3.75.2,5.29-.69,5.05-4.84-.39-6.63,0-13.3-.16-20-.08-2.81.79-3.8,3.63-3.72C203.52,5.6,209.68,5.49,215.83,5.49Z" transform="translate(0 0)"/><path class="cls-1" d="M403.91,5.49c10.09,0,10,0,9.67,10.12-.08,2.49-.61,3.63-3.33,3.44-3-.21-6,0-9-.06-1.82,0-3.17,0-3.19,2.52s1.05,2.74,3,2.71c4.82-.08,9.65-.15,14.47,0,2.63.09,3.49-.84,3.42-3.43-.15-5.64-.16-11.3,0-16.95.08-2.73-.66-3.79-3.6-3.75C403.92.28,392.44.3,381,.12c-3.13,0-4,1-3.9,4,.19,6.81-.07,13.63.12,20.44.09,3-.86,4.13-3.94,4-6.14-.19-12.3-.06-18.45-.06-8.76,0-8.59,0-8.77-8.53-.07-3.69.68-5.54,4.83-5,2.61.34,5.31,0,8,.07,1.72,0,2.78-.22,2.78-2.38s-.68-2.92-2.86-2.87q-7.47.19-15,0c-2.37-.06-3.22.74-3.16,3.14.14,5.82.19,11.65,0,17.46-.11,3.06,1.23,3.58,3.86,3.51,5.65-.14,11.31,0,17-.05,5.15,0,10.33-.27,15.46.08,4.18.27,5.94-.63,5.59-5.35-.5-6.45,0-13-.17-19.44-.08-2.8.76-3.8,3.64-3.71C391.94,5.63,397.93,5.49,403.91,5.49Z" transform="translate(0 0)"/><path class="cls-1" d="M356.48,5.43c10.78,0,10.71,0,10,10.72-.13,2.07-.6,3-2.83,2.88-3.32-.16-6.65,0-10-.05-1.65,0-2.88.09-2.92,2.3s.69,3,2.87,2.92c5-.1,10-.13,14.95,0,2.39.07,3.17-.77,3.11-3.14-.13-5.81-.19-11.63,0-17.44.11-3-1.12-3.6-3.79-3.52-5.65.17-11.3.05-16.95.05-5.48,0-11,.23-16.45-.08-3.65-.21-5,.71-4.8,4.6.33,6.8,0,13.63.11,20.44.06,2.61-.84,3.48-3.43,3.42-6-.14-12,0-17.94,0-10.54,0-10.48,0-9.77-10.6.14-2.11.71-3,2.89-2.89,3.32.13,6.65,0,10,.05,1.92,0,3-.19,3-2.63s-1.28-2.62-3.11-2.6c-4.82,0-9.64.11-14.46,0-2.44-.07-3.59.52-3.5,3.29.19,5.81.18,11.64,0,17.45-.07,2.63.8,3.42,3.42,3.39,11.46-.14,22.93-.19,34.39,0,3.1,0,4-1,3.94-4-.19-6.14.37-12.33-.17-18.43-.47-5.35,1.58-6.51,6.4-6.12S351.49,5.44,356.48,5.43Z" transform="translate(0 0)"/><path class="cls-1" d="M121,5.35c10.72,0,10.65,0,9.92,10.84-.14,2.1-.64,3-2.85,2.86-3.32-.16-6.65,0-10-.06-1.64,0-2.91.1-3,2.31s.78,2.92,2.91,2.88c5-.1,10-.14,15,0,2.5.08,3.06-.95,3-3.22-.13-5.82-.15-11.64,0-17.46.07-2.59-.77-3.43-3.4-3.4C121,.24,109.4.26,97.76.12c-2.94,0-3.66,1-3.6,3.75.15,6.81-.15,13.64.12,20.45.15,3.6-1.16,4.51-4.54,4.36-5.64-.25-11.3-.07-17-.07-10.47,0-10.4,0-9.68-10.72.15-2.13.74-3,2.89-2.89,3.32.12,6.65,0,10,.06,1.94,0,3.06-.28,3-2.69s-1.46-2.5-3.23-2.49c-5,0-10,.07-15,0-2.17-.05-2.86.75-2.82,2.9.11,6,.16,12,0,18-.09,2.8,1.07,3.31,3.53,3.24,5.65-.14,11.31,0,17,0v-.07c5.65,0,11.31-.17,17,.07,3.25.14,4.38-.83,4.26-4.18-.24-6.64.11-13.3-.16-19.94-.14-3.59,1.19-4.59,4.56-4.46C109.71,5.51,115.37,5.35,121,5.35Z" transform="translate(0 0)"/><path class="cls-1" d="M545.24,5.36c10.61,0,10.54,0,9.86,10.84-.13,2.16-.71,2.93-2.87,2.84-3.32-.14-6.65,0-10-.06-2-.06-3.07.39-3,2.73.07,2.1,1.08,2.48,2.82,2.46,5.15,0,10.3-.11,15.45,0,2.39.07,2.68-1.12,2.65-3.05-.07-5.81-.17-11.64,0-17.45.11-2.94-1-3.66-3.73-3.57-5.65.17-11.31.05-17,.05-5.32,0-10.67.38-15.94-.11-4.72-.44-5.55,1.43-5.35,5.6.32,6.63,0,13.29.09,19.94,0,1.91-.22,3-2.67,3-8.47-.15-16.95-.09-25.43,0-2,0-2.8-.65-3-2.85C486.38,15,486.3,15,496.72,15c1.17,0,2.34-.09,3.49,0,2.12.21,3-.56,2.93-2.79S502,9.83,500.32,9.85c-5,0-10,.14-15-.06-2.76-.11-3.3,1.07-3.23,3.51.14,5.65.19,11.31,0,17-.1,2.82.74,3.71,3.61,3.67,11.3-.17,22.61-.24,33.91,0,3.52.06,4.15-1.32,4.08-4.37-.17-6.64.09-13.3-.12-19.94-.1-3.2.82-4.44,4.18-4.3C533.59,5.53,539.42,5.36,545.24,5.36Z" transform="translate(0 0)"/><path class="cls-1" d="M169.92,5.36c8,0,7.82,0,8.12,8.22.15,4.16-.64,6.23-5.31,5.5-2.43-.39-5,0-7.47-.08-1.69,0-2.8.19-2.81,2.36s.86,2.86,2.93,2.82c5-.08,10-.09,15,0,2.12,0,3-.67,2.91-2.86-.13-6-.23-12,0-18C183.29.55,182,.11,179.63.13c-11.47.08-22.95.17-34.42,0-3.36-.06-3.8,1.32-3.73,4.13.16,6.65-.13,13.31.13,20,.14,3.6-1.19,4.56-4.59,4.42-5.64-.23-11.3-.06-17,0-10.6,0-10.53.05-9.71-10.69.16-2.1.74-3,2.89-2.88,3.32.13,6.66,0,10,.06,1.76,0,2.75-.32,2.79-2.41s-.71-2.86-2.89-2.8c-5,.14-10,.14-15,0-2.46-.08-3.14.9-3.1,3.21.11,5.82.14,11.64,0,17.46-.07,2.62.83,3.48,3.44,3.4,5.65-.16,11.31,0,17,0v0c5.82,0,11.65-.15,17.46.06,3.15.12,4-1.07,3.87-4-.19-6.48.25-13-.16-19.45C146.34,6,148,5.06,152,5.28,157.93,5.59,163.93,5.36,169.92,5.36Z" transform="translate(0 0)"/><path class="cls-1" d="M451.24,5.41c10.1,0,10,0,9.68,10.18-.08,2.5-.65,3.64-3.36,3.47-3.14-.2-6.31.06-9.47-.07-2.09-.09-3,.51-2.94,2.77,0,2.08,1,2.46,2.73,2.43,5.16-.06,10.31-.09,15.46,0,2.24.05,2.82-.91,2.79-3-.1-6-.13-12,0-17.95.05-2.42-.85-3.13-3.19-3.11-11.8.09-23.6.11-35.4,0-2.65,0-3.41.86-3.36,3.43.14,7.14-.06,14.29.11,21.43.06,2.82-.84,3.79-3.67,3.71-6-.17-12-.06-17.95,0-9.69,0-9.58,0-9.52-9.75,0-2.89.54-4.3,3.8-4,2.79.29,5.64,0,8.47.06,1.68,0,3.21.22,3.28-2.41.07-2.88-1.56-2.76-3.49-2.74-4.65,0-9.31.15-14,0-2.65-.1-3.45.86-3.39,3.43.14,5.64.13,11.3,0,17-.08,2.74.76,3.84,3.66,3.74,5.65-.2,11.3-.06,16.95-.06v-.09c5.65,0,11.32-.24,16.95.08,3.53.21,4.11-1.2,4-4.27-.2-6.64.15-13.3-.14-19.94-.16-3.62,1.1-4.5,4.5-4.34C439.6,5.6,445.42,5.4,451.24,5.41Z" transform="translate(0 0)"/><path class="cls-1" d="M269.52,5.39c1.71,0,2.63.41,2.91,2.44,1.45,10.22.68,11.2-9.48,11.2-1.17,0-2.33,0-3.49,0-1.62-.05-2.88,0-2.87,2.28,0,2.11.57,3,2.8,2.91q7.73-.18,15.45,0c2.29.06,2.78-.95,2.75-3-.1-6-.13-12,0-17.94.06-2.42-.81-3.16-3.16-3.12-6,.13-12,.05-17.94.05-5.65,0-11.31.15-16.95-.07-3-.12-4.08.65-4,3.83.25,6.81-.14,13.63.16,20.43.16,3.65-1.13,4.44-4.51,4.34-7.47-.24-15-.22-22.43,0-3.29.1-4.19-.92-4.18-4.19,0-9.53-.13-9.53,9.64-9.53,1.16,0,2.33-.07,3.49,0,2,.17,2.51-.84,2.55-2.67,0-2.05-.92-2.55-2.73-2.52-5.15.06-10.3.13-15.45,0-2.4-.06-2.65,1.14-2.62,3.06.08,5.82.16,11.64,0,17.45-.09,2.91,1,3.61,3.74,3.57,11.14-.15,22.27-.24,33.4,0,3.72.08,4.37-1.33,4.27-4.61-.22-6.8,0-13.62-.08-20.44,0-2,.12-3.55,2.81-3.52C252.24,5.45,260.88,5.41,269.52,5.39Z" transform="translate(0 0)"/><path class="cls-1" d="M73.9,5.41c10.76,0,10.69,0,10,10.77-.13,2.13-.7,3-2.87,2.87-3.32-.13-6.65,0-10-.06-1.95,0-3,.31-3,2.69,0,2.56,1.46,2.52,3.21,2.51,5,0,10-.1,15,0,2.19.05,2.88-.73,2.83-2.88-.11-5.81-.25-11.64,0-17.45C89.23.55,87.85.1,85,.13,73.71.27,62.4.34,51.1.12c-3.5-.07-4.12,1.27-4,4.33.18,6.81-.11,13.63.13,20.44.1,3.17-1,3.93-4,3.84-7-.21-14-.41-20.94.05-5,.32-6.6-1.05-6.27-6.19.49-7.54.12-7.56,7.67-7.56,1.83,0,3.66-.08,5.48,0s2.71-.61,2.73-2.55-.73-2.67-2.64-2.64c-5.15.06-10.31.1-15.46,0-2.18-.05-2.87.73-2.83,2.87.12,6,.18,12,0,18-.08,2.75,1,3.33,3.5,3.26,5.65-.17,11.3-.06,17-.06,5.32,0,10.65-.21,16,.07,3.77.2,5.3-.77,5.07-4.89-.36-6.63,0-13.3-.15-19.94C52.2,6.29,53.1,5.27,56,5.35,61.93,5.52,67.92,5.41,73.9,5.41Z" transform="translate(0 0)"/><path class="cls-1" d="M500.23,5.37c9.17.08,7.31-1,7.87,7.51.32,5-1,7-6.15,6.19-2.27-.36-4.65,0-7-.09-1.71,0-2.77.21-2.79,2.39s.82,2.86,2.92,2.82c5-.1,10-.13,15,0,2.36.07,3.18-.68,3.12-3.1-.15-5.81-.21-11.64,0-17.45.12-3-1.09-3.6-3.75-3.53-5.81.15-11.64,0-17.45.05-5.66,0-11.32.18-17-.07-3.16-.15-3.93,1-3.85,4,.2,7.14,0,14.3.09,21.44,0,2.32-.61,3.25-3.08,3.21q-12.46-.18-24.93,0c-2.51,0-2.95-1-3-3.24C439.75,15,439.68,15,449.89,15c1,0,2-.08,3,0,2,.17,3.12-.29,3.09-2.64s-1.4-2.56-3.24-2.54c-4.82.06-9.65.11-14.47,0-2.28-.06-3.23.58-3.17,3.05.16,6,.14,12,0,18-.06,2.45.89,3.1,3.21,3.08,11.47-.12,22.94-.21,34.41,0,3.29,0,3.82-1.28,3.75-4.12-.17-6.81.07-13.64-.12-20.45-.09-3,.85-4.1,3.93-4C486.92,5.49,493.58,5.31,500.23,5.37Z" transform="translate(0 0)"/><path class="cls-1" d="M316.64,5.37c1.71,0,2.6.37,2.86,2.42C320.83,18.33,320.33,19,310,19c-1.17,0-2.33,0-3.49,0-1.63,0-2.87.07-2.9,2.31s.77,2.91,2.89,2.87c5-.1,10-.13,15,0,2.38.07,3.18-.72,3.12-3.11-.15-5.65-.27-11.32,0-16.95.19-3.48-1.19-4.07-4.26-4-11.14.16-22.28.22-33.41,0-3.68-.08-4.44,1.22-4.33,4.55.22,6.81-.06,13.63.12,20.44.08,2.92-1,3.72-3.74,3.64-5.81-.16-11.63-.05-17.45-.05-10.71,0-10.64,0-9.93-10.81.14-2.16.74-2.93,2.89-2.84,3.32.13,6.65,0,10,.05,2,.07,3.05-.43,3-2.74,0-2.11-1.08-2.46-2.81-2.45-5.15,0-10.31.11-15.46,0-2.33-.06-2.72,1-2.69,3,.09,6,.12,12,0,18-.06,2.39.74,3.19,3.13,3.13,5.64-.13,11.3,0,16.95,0v-.07c5.82,0,11.64-.15,17.45.06,3.08.1,4-1,3.94-4-.19-7,0-14-.1-20.94,0-2.41.5-3.68,3.29-3.63C299.68,5.45,308.16,5.39,316.64,5.37Z" transform="translate(0 0)"/><path class="cls-1" d="M33.82,5.37c2.09,0,2.8.77,3,2.91C37.76,19,37.83,19,27.32,19a31.22,31.22,0,0,1-3.49,0c-2.22-.25-2.83.71-2.83,2.84s1.12,2.38,2.81,2.36c5-.05,10-.16,15,0,2.8.11,3.3-1.12,3.24-3.56-.14-5.65-.19-11.3,0-17C42.12.76,41,.07,38.24.15c-5.64.18-11.3.06-17,.06v0c-5.82,0-11.64.1-17.45,0C1.24.08-.06.52,0,3.6c.2,9,.07,18,.08,26.93,0,1.64-.34,3.29,2.34,3.36s2.82-1.43,2.8-3.44c0-7.15.06-14.29,0-21.44,0-2.38.42-3.7,3.22-3.66C16.86,5.48,25.34,5.43,33.82,5.37Z" transform="translate(0 0)"/><path class="cls-1" d="M779.5,5.55c9.49,0,9.38,0,9.33,9.57,0,2.93-.61,4.3-3.83,4-3-.27-6,0-9-.08-1.76-.05-2.74.3-2.8,2.4s.71,2.89,2.86,2.85c5-.11,10-.12,15,0,2.38.06,3.2-.8,3.14-3.19-.13-5.65-.18-11.31,0-17,.11-3-.81-4-3.92-4-11.48.17-23,.15-34.44,0-2.86,0-3.7.88-3.63,3.67.17,6.65-.15,13.32.13,20,.16,3.62-.69,5.08-4.61,4.85-5.63-.33-11.31-.11-17-.08-9.77,0-9.77.06-9.49-9.76a6.68,6.68,0,0,0,0-1c-.28-2.29.9-2.81,3-2.74,3.32.12,6.65-.07,10,.06,2.07.07,2.51-.88,2.54-2.69,0-2-.74-2.58-2.64-2.55-5.15.08-10.31.11-15.47,0-2.73-.06-2.81,1.52-2.79,3.53,0,5.66.15,11.32-.05,17-.1,2.94,1,3.69,3.79,3.61,5.65-.18,11.31-.06,17-.06,5.33,0,10.66-.22,16,.07,3.75.2,5.28-.69,5-4.84-.38-6.63,0-13.3-.15-19.95-.08-2.81.79-3.8,3.63-3.72C767.19,5.66,773.35,5.55,779.5,5.55Z" transform="translate(0 0)"/><path class="cls-1" d="M967.58,5.55c10.09,0,10,0,9.67,10.12-.08,2.49-.61,3.63-3.33,3.44-3-.21-6,0-9-.06-1.82,0-3.17,0-3.2,2.52s1.06,2.74,3,2.71c4.82-.08,9.65-.15,14.47,0,2.62.09,3.48-.84,3.42-3.43-.15-5.65-.16-11.3,0-16.95.08-2.73-.66-3.79-3.6-3.75-11.47.16-22.95.18-34.42,0-3.13,0-4,1-3.9,4,.19,6.81-.07,13.63.12,20.44.09,3-.86,4.13-3.94,4-6.14-.19-12.3-.06-18.45-.06-8.76,0-8.59,0-8.77-8.53-.07-3.69.68-5.54,4.83-5,2.61.34,5.31,0,8,.07,1.72,0,2.78-.22,2.78-2.38s-.68-2.92-2.86-2.87q-7.47.2-15,0c-2.37-.06-3.22.74-3.16,3.14.13,5.82.19,11.65,0,17.46-.1,3.06,1.24,3.58,3.87,3.51,5.65-.14,11.31,0,17,0,5.15,0,10.33-.27,15.46.07,4.18.28,5.94-.62,5.58-5.34-.49-6.45,0-13-.17-19.44-.07-2.8.77-3.8,3.65-3.71C955.61,5.69,961.6,5.55,967.58,5.55Z" transform="translate(0 0)"/><path class="cls-1" d="M920.15,5.49c10.78,0,10.71,0,10,10.72-.13,2.07-.6,3-2.83,2.88-3.32-.16-6.65,0-10-.05-1.65,0-2.88.09-2.92,2.3s.69,3,2.87,2.92c5-.1,10-.13,14.95,0,2.39.07,3.17-.77,3.11-3.14-.13-5.81-.19-11.63,0-17.44.11-3-1.12-3.6-3.79-3.52-5.65.17-11.3,0-17,0-5.48,0-11,.23-16.45-.08-3.65-.21-5,.71-4.8,4.6.32,6.8,0,13.63.11,20.44.06,2.61-.84,3.48-3.43,3.42-6-.14-12,0-17.94,0-10.54,0-10.48,0-9.77-10.6.14-2.11.71-3,2.89-2.89,3.32.13,6.65,0,10,0,1.92.05,3-.19,3-2.63s-1.27-2.62-3.1-2.6c-4.82,0-9.64.11-14.46,0-2.44-.07-3.6.52-3.5,3.29.19,5.81.18,11.64,0,17.45-.07,2.63.8,3.42,3.41,3.39,11.47-.14,22.93-.2,34.4,0,3.09,0,4-1,3.94-4-.19-6.14.37-12.33-.17-18.43-.47-5.35,1.58-6.51,6.4-6.12S915.16,5.49,920.15,5.49Z" transform="translate(0 0)"/><path class="cls-1" d="M684.69,5.41c10.72,0,10.65,0,9.92,10.83-.14,2.11-.64,3-2.85,2.87-3.32-.16-6.65,0-10-.06-1.63,0-2.9.1-2.95,2.31s.79,2.92,2.92,2.88c5-.1,10-.14,15,0,2.5.08,3.06-1,3-3.22-.12-5.82-.14-11.64,0-17.46.07-2.59-.77-3.43-3.4-3.4-11.63.12-23.28.14-34.91,0-2.94,0-3.66,1-3.6,3.75.15,6.81-.15,13.64.12,20.45.15,3.6-1.16,4.51-4.54,4.36-5.64-.25-11.31-.07-17-.07-10.47,0-10.4,0-9.68-10.72.15-2.13.74-3,2.89-2.89,3.32.12,6.65,0,10,.06,1.94,0,3.06-.28,3-2.69s-1.46-2.5-3.23-2.49c-5,0-10,.07-15,0-2.17-.05-2.87.75-2.82,2.9.11,6,.16,12,0,18-.09,2.8,1.07,3.31,3.53,3.24,5.65-.14,11.31,0,17,0v-.07c5.65,0,11.31-.17,17,.07,3.25.14,4.38-.83,4.26-4.18-.25-6.64.11-13.3-.16-19.94-.14-3.59,1.19-4.59,4.56-4.47C673.38,5.57,679,5.41,684.69,5.41Z" transform="translate(0 0)"/><path class="cls-1" d="M1108.9,5.42c10.62,0,10.54,0,9.87,10.84-.13,2.16-.71,2.93-2.87,2.84-3.32-.14-6.65,0-10-.06-2-.06-3.07.39-3,2.73.07,2.1,1.07,2.48,2.82,2.46,5.15,0,10.3-.11,15.45,0,2.39.07,2.68-1.12,2.65-3.05-.07-5.81-.17-11.64,0-17.45.1-2.94-1-3.66-3.73-3.57-5.65.17-11.31.05-17,.05-5.32,0-10.67.38-16-.11-4.71-.44-5.54,1.43-5.34,5.6.32,6.63,0,13.29.09,19.94,0,1.91-.22,3-2.67,3-8.47-.16-16.95-.09-25.43,0-2,0-2.8-.65-3-2.85-.88-10.69-1-10.68,9.46-10.7,1.16,0,2.34-.09,3.49,0,2.12.21,2.95-.56,2.93-2.79s-1.12-2.41-2.82-2.39c-5,0-10,.14-15-.06-2.76-.11-3.3,1.07-3.24,3.51.15,5.65.2,11.31,0,17-.1,2.82.73,3.71,3.61,3.67,11.3-.17,22.61-.24,33.91,0,3.51.06,4.15-1.32,4.08-4.37-.17-6.64.09-13.3-.12-19.94-.1-3.2.82-4.44,4.18-4.3C1097.26,5.59,1103.09,5.42,1108.9,5.42Z" transform="translate(0 0)"/><path class="cls-1" d="M733.59,5.42c8,0,7.82,0,8.12,8.22.15,4.16-.64,6.23-5.31,5.5-2.43-.39-5,0-7.47-.08-1.69,0-2.8.19-2.82,2.36s.87,2.86,2.94,2.82c5-.08,10-.09,15,0,2.12,0,3-.67,2.91-2.86-.13-6-.23-12,0-18C747,.61,745.69.17,743.3.19c-11.48.08-22.95.17-34.43,0-3.35-.06-3.79,1.32-3.72,4.13.16,6.65-.13,13.31.13,20,.14,3.6-1.19,4.56-4.59,4.42-5.64-.23-11.31-.06-17,0-10.6,0-10.53.05-9.71-10.69.16-2.1.73-2.95,2.89-2.88,3.32.13,6.65,0,10,.06,1.76,0,2.75-.32,2.79-2.41s-.71-2.86-2.89-2.8c-5,.14-10,.14-15,0-2.46-.08-3.14.9-3.1,3.21.11,5.82.14,11.64,0,17.46-.07,2.62.83,3.48,3.44,3.4,5.65-.16,11.31-.05,17-.05v0c5.82,0,11.65-.15,17.46.06,3.15.12,4-1.07,3.87-4-.19-6.48.25-13-.16-19.45-.28-4.39,1.34-5.33,5.34-5.11C721.6,5.65,727.6,5.42,733.59,5.42Z" transform="translate(0 0)"/><path class="cls-1" d="M1014.91,5.47c10.1,0,10,0,9.68,10.18-.08,2.5-.65,3.63-3.36,3.47-3.14-.2-6.31.06-9.47-.07-2.09-.09-3,.51-2.94,2.77,0,2.08,1,2.46,2.73,2.43,5.15-.06,10.31-.09,15.46,0,2.24,0,2.82-.91,2.79-3-.1-6-.13-12,0-18,.06-2.42-.84-3.13-3.18-3.11-11.8.09-23.6.11-35.4,0-2.65,0-3.41.86-3.36,3.43.14,7.14-.06,14.29.1,21.43.07,2.82-.83,3.79-3.66,3.71-6-.17-12-.06-17.95-.05-9.69,0-9.58,0-9.53-9.75,0-2.89.55-4.3,3.81-4,2.79.29,5.64.05,8.47.06,1.68,0,3.21.22,3.28-2.41.07-2.88-1.56-2.76-3.49-2.74-4.65,0-9.31.15-14,0-2.65-.1-3.46.86-3.39,3.43.14,5.64.13,11.3,0,17-.08,2.74.76,3.84,3.66,3.74,5.64-.2,11.3-.06,17-.06v-.09c5.65,0,11.32-.24,17,.08,3.53.21,4.11-1.2,4-4.27-.19-6.64.16-13.3-.13-19.94-.17-3.62,1.1-4.5,4.5-4.34C1003.27,5.66,1009.09,5.46,1014.91,5.47Z" transform="translate(0 0)"/><path class="cls-1" d="M833.19,5.45c1.71,0,2.63.41,2.91,2.44,1.44,10.22.68,11.2-9.48,11.2-1.17,0-2.33,0-3.49,0-1.62,0-2.88,0-2.87,2.28,0,2.11.57,3,2.8,2.91q7.73-.18,15.45,0c2.28.06,2.78-.95,2.75-3-.1-6-.13-12,0-17.94.05-2.42-.81-3.16-3.16-3.12-6,.13-12,0-17.94,0-5.65,0-11.31.16-16.95-.06-3-.12-4.08.65-4,3.83.25,6.81-.14,13.63.16,20.43.16,3.65-1.13,4.44-4.51,4.34-7.47-.24-15-.22-22.43,0-3.29.1-4.19-.92-4.18-4.19,0-9.53-.13-9.53,9.64-9.53,1.16,0,2.33-.07,3.49,0,2,.17,2.51-.84,2.55-2.67,0-2-.92-2.55-2.73-2.52-5.15.06-10.31.13-15.45,0-2.4-.06-2.65,1.14-2.62,3.06.08,5.82.16,11.64,0,17.45-.1,2.91,1,3.61,3.74,3.57,11.13-.15,22.27-.24,33.4,0,3.72.08,4.37-1.33,4.26-4.61-.21-6.8,0-13.62-.07-20.44,0-2,.12-3.55,2.81-3.52C815.91,5.51,824.55,5.47,833.19,5.45Z" transform="translate(0 0)"/><path class="cls-1" d="M637.57,5.47c10.76,0,10.69,0,10,10.77-.13,2.13-.7,3-2.87,2.87-3.32-.13-6.65,0-10-.06-2-.05-3,.31-3,2.69,0,2.56,1.46,2.52,3.21,2.51,5,0,10-.1,15,0,2.19.05,2.88-.73,2.83-2.88-.11-5.81-.25-11.64,0-17.45C652.9.61,651.52.16,648.68.19c-11.3.14-22.61.21-33.91,0-3.51-.07-4.12,1.27-4,4.33.18,6.81-.11,13.63.12,20.44.11,3.16-1,3.93-4,3.84-7-.21-14-.41-20.94.05-5,.32-6.6-1.05-6.27-6.19.49-7.54.12-7.56,7.67-7.56,1.83,0,3.66-.08,5.48,0s2.71-.61,2.73-2.55-.73-2.67-2.64-2.64c-5.15.06-10.31.1-15.46,0-2.19-.05-2.87.73-2.83,2.87.11,6,.18,12,0,18-.08,2.75,1,3.33,3.5,3.26,5.65-.17,11.3-.06,17-.06,5.31,0,10.64-.21,15.95.07,3.77.2,5.3-.77,5.07-4.89-.36-6.63,0-13.3-.15-19.94-.07-2.81.83-3.83,3.68-3.75C625.6,5.58,631.59,5.47,637.57,5.47Z" transform="translate(0 0)"/><path class="cls-1" d="M1063.9,5.43c9.17.08,7.31-1,7.86,7.51.33,5-1,7-6.14,6.19-2.27-.36-4.65,0-7-.09-1.71,0-2.77.21-2.79,2.39s.82,2.86,2.91,2.82c5-.1,10-.13,15,0,2.37.07,3.19-.68,3.13-3.1-.15-5.81-.21-11.64,0-17.45.12-3-1.09-3.61-3.75-3.53-5.82.15-11.64,0-17.45,0s-11.32.19-17-.06c-3.16-.15-3.93,1-3.85,4,.2,7.14,0,14.3.09,21.44,0,2.32-.61,3.25-3.08,3.21q-12.47-.18-24.93,0c-2.52,0-3-1-3.05-3.24-.49-10.45-.56-10.45,9.66-10.44,1,0,2-.08,3,0,2,.17,3.12-.29,3.09-2.64s-1.4-2.56-3.25-2.54c-4.82.06-9.64.11-14.46,0-2.28-.05-3.23.59-3.17,3.06.16,6,.14,12,0,18-.06,2.45.89,3.1,3.21,3.07,11.46-.11,22.94-.2,34.4,0,3.3.05,3.83-1.28,3.75-4.12-.17-6.81.08-13.64-.11-20.45-.09-3,.85-4.1,3.93-4C1050.59,5.55,1057.25,5.37,1063.9,5.43Z" transform="translate(0 0)"/><path class="cls-1" d="M880.31,5.43c1.71,0,2.6.36,2.86,2.42,1.33,10.54.83,11.22-9.46,11.22-1.17,0-2.33,0-3.49,0-1.63,0-2.87.07-2.9,2.31s.77,2.91,2.89,2.87c5-.1,10-.13,15,0,2.38.07,3.18-.72,3.12-3.11-.15-5.65-.27-11.32,0-16.95.19-3.48-1.19-4.07-4.27-4-11.13.16-22.27.22-33.4,0-3.68-.08-4.44,1.22-4.33,4.55.22,6.81-.06,13.63.12,20.44.08,2.91-1,3.72-3.74,3.64-5.81-.16-11.64-.05-17.45-.05-10.71,0-10.64,0-9.93-10.82.14-2.15.74-2.92,2.89-2.83,3.32.13,6.65-.05,10,0,2,.07,3.05-.43,3-2.74-.05-2.11-1.09-2.46-2.81-2.45-5.15,0-10.31.11-15.46,0-2.33-.06-2.72,1-2.69,3,.09,6,.12,12,0,18-.06,2.38.74,3.19,3.12,3.13,5.65-.13,11.31,0,17,0v-.07c5.81,0,11.64-.15,17.45.06,3.08.1,4-1,3.94-4-.19-7,0-14-.1-20.94,0-2.41.5-3.68,3.29-3.63C863.35,5.51,871.83,5.45,880.31,5.43Z" transform="translate(0 0)"/><path class="cls-1" d="M1125.4,28.6c-7.8,0-15.6,0-23.39,0-1.75,0-3.54.42-4-2.42-1.48-9.79-.51-11.09,9.12-11.08,1.16,0,2.32,0,3.48,0,1.75.06,3.22.13,3.22-2.43,0-2.29-.94-2.79-3-2.75-5,.09-10,.11-14.93,0-2.38-.06-3.16.78-3.11,3.16.14,5.8.18,11.61,0,17.41-.1,3,1.1,3.64,3.8,3.53,4.81-.18,9.62,0,14.43,0h14.43c1.78,0,3.72.45,3.84-2.46C1129.47,28.24,1127.41,28.6,1125.4,28.6Z" transform="translate(0 0)"/><path class="cls-1" d="M597.49,5.43c2.09,0,2.8.77,3,2.91.95,10.75,1,10.75-9.49,10.75a31.22,31.22,0,0,1-3.49,0c-2.22-.25-2.84.71-2.83,2.84s1.11,2.38,2.81,2.36c5-.05,10-.16,14.95,0,2.81.11,3.3-1.12,3.24-3.56-.13-5.65-.19-11.31,0-16.95.1-3-1.06-3.65-3.78-3.57-5.64.18-11.3.06-16.95.06v0c-5.82,0-11.64.1-17.45,0-2.6-.07-3.91.37-3.84,3.45.18,8.31.09,16.61.08,24.92a16.68,16.68,0,0,0-2,0q-11.7,0-23.39,0c-1.75,0-3.53.42-4-2.42-1.49-9.79-.52-11.09,9.11-11.08,1.16,0,2.32,0,3.48,0,1.75.06,3.22.13,3.22-2.43,0-2.29-.94-2.79-3-2.75-5,.09-10,.11-14.93,0-2.38-.06-3.16.78-3.11,3.16.14,5.8.18,11.61,0,17.41-.1,3,1.1,3.64,3.8,3.53,4.81-.18,9.62,0,14.43,0h14.44a6.77,6.77,0,0,0,2.75-.23,3.35,3.35,0,0,0,1.51.33c2.79.08,2.82-1.43,2.8-3.44,0-7.15.05-14.29,0-21.44,0-2.38.42-3.7,3.22-3.66C580.53,5.54,589,5.49,597.49,5.43Z" transform="translate(0 0)"/></svg>