<svg id="Laag_1" data-name="Laag 1" xmlns="http://www.w3.org/2000/svg" viewBox="0 0 325.44 184.73"><defs><style>.cls-1{fill:#010101;}</style></defs><title>logo</title><path class="cls-1" d="M34.16,62.8c8,0,11.81,4.32,11.81,12.46v6.55C46,90,42.16,94.27,34.16,94.27H30.42V113.2H22.5V62.8ZM30.42,70V87.06h3.74c2.52,0,3.89-1.08,3.89-4.75V74.75c0-3.67-1.37-4.75-3.89-4.75Z" transform="translate(-0.87)"/><path class="cls-1" d="M68,113.2c-.07-.36-.21-.65-.28-.93a7.61,7.61,0,0,1-.37-2.74c-.07-.65-.07-1.51-.07-2.52V99.09c0-4.68-1.51-6.41-5.18-6.41H59.36V113.2H51.44V62.8h12c8.29,0,11.74,3.82,11.74,11.59v4c0,5.19-1.73,8.57-5.18,10.23,4,1.65,5.25,5.47,5.25,10.73v7.77a14.86,14.86,0,0,0,.87,6.12ZM59.36,70V85.48h3.1c2.95,0,4.75-1.3,4.75-5.33v-5c0-3.67-1.22-5.18-4-5.18Z" transform="translate(-0.87)"/><path class="cls-1" d="M81.54,74.9c0-8.14,4.25-12.68,12-12.68s12,4.54,12,12.68v26.21c0,8.13-4.25,12.67-12,12.67s-12-4.54-12-12.67Zm7.92,26.71c0,3.67,1.58,5,4.1,5s4.11-1.3,4.11-5V74.39c0-3.67-1.59-5-4.11-5s-4.1,1.3-4.1,5Z" transform="translate(-0.87)"/><path class="cls-1" d="M110.26,106a8.6,8.6,0,0,0,1.37.07H113c2.52,0,4.54-.86,4.54-4.82V62.8h7.92v37.87c0,5.12-1.37,8.21-3.46,10.09a11.7,11.7,0,0,1-7.92,2.59h-1.94a16,16,0,0,1-1.88-.15Z" transform="translate(-0.87)"/><path class="cls-1" d="M140.58,84h10.87v7.2H140.58V106h13.68v7.2h-21.6V62.8h21.6V70H140.58Z" transform="translate(-0.87)"/><path class="cls-1" d="M183.85,94.41v6.7c0,8.13-4,12.67-11.81,12.67s-11.81-4.54-11.81-12.67V74.9c0-8.14,4-12.68,11.81-12.68s11.81,4.54,11.81,12.68v4.89h-7.49v-5.4c0-3.67-1.58-5-4.1-5s-4.11,1.3-4.11,5v27.22c0,3.67,1.59,4.9,4.11,4.9s4.1-1.23,4.1-4.9v-7.2Z" transform="translate(-0.87)"/><path class="cls-1" d="M188.17,62.8h24.48V70h-8.28v43.2h-7.92V70h-8.28Z" transform="translate(-0.87)"/><path class="cls-1" d="M32.18,117.8H56.67V125H48.38v43.2H40.46V125H32.18Z" transform="translate(-0.87)"/><path class="cls-1" d="M69.84,168.2H61.92V117.8h7.92v21.6h9V117.8H86.9v50.4H78.84V146.6h-9Z" transform="translate(-0.87)"/><path class="cls-1" d="M93.81,129.9c0-8.14,4.25-12.68,12-12.68s12,4.54,12,12.68v26.21c0,8.13-4.25,12.67-12,12.67s-12-4.54-12-12.67Zm7.92,26.71c0,3.67,1.59,5,4.11,5s4.1-1.3,4.1-5V129.39c0-3.67-1.58-5-4.1-5s-4.11,1.3-4.11,5Z" transform="translate(-0.87)"/><path class="cls-1" d="M141.26,168.2a9.46,9.46,0,0,0-.29-.93,7.9,7.9,0,0,1-.36-2.74c-.07-.65-.07-1.51-.07-2.52v-7.92c0-4.68-1.51-6.41-5.18-6.41h-2.74V168.2H124.7V117.8h12c8.28,0,11.74,3.82,11.74,11.59v4c0,5.19-1.73,8.57-5.18,10.23,4,1.65,5.25,5.47,5.25,10.73v7.77a14.7,14.7,0,0,0,.87,6.12ZM132.62,125v15.48h3.1c2.95,0,4.75-1.3,4.75-5.33v-5c0-3.67-1.22-5.18-4-5.18Z" transform="translate(-0.87)"/><path class="cls-1" d="M155.44,117.8h7.92v50.4h-7.92Z" transform="translate(-0.87)"/><path class="cls-1" d="M181.29,148.11l-2.45,4.61V168.2h-7.92V117.8h7.92v22l10.37-22h7.92l-11,22.46,11,27.94H189Z" transform="translate(-0.87)"/><path class="cls-1" d="M201.38,129.9c0-8.14,4.25-12.68,12-12.68s12,4.54,12,12.68v26.21c0,8.13-4.25,12.67-12,12.67s-12-4.54-12-12.67Zm7.92,26.71c0,3.67,1.58,5,4.1,5s4.11-1.3,4.11-5V129.39c0-3.67-1.59-5-4.11-5s-4.1,1.3-4.1,5Z" transform="translate(-0.87)"/><path class="cls-1" d="M243,117.22c7.77,0,11.66,4.54,11.66,12.68v1.58h-7.49v-2.09c0-3.67-1.44-5-4-5s-4,1.3-4,5c0,3.46,1.73,6,4,8.28A42.32,42.32,0,0,0,247,141.2a25.48,25.48,0,0,1,6.55,8.64,15.49,15.49,0,0,1,1.15,6.27c0,8.13-4,12.67-11.81,12.67s-11.81-4.54-11.81-12.67V153h7.49v3.6c0,3.67,1.59,4.9,4.11,4.9s4.1-1.23,4.1-4.9c0-3.46-1.73-6-4-8.35-1.15-1.15-2.38-2.31-3.67-3.53a23.82,23.82,0,0,1-6.63-8.57,15.47,15.47,0,0,1-1.15-6.26C231.33,121.76,235.22,117.22,243,117.22Z" transform="translate(-0.87)"/><polygon class="cls-1" points="270.3 184.73 0 184.73 0 41.96 178.22 41.96 178.22 47.08 5.12 47.08 5.12 179.61 265.18 179.61 265.18 109.16 270.3 109.16 270.3 184.73"/><path class="cls-1" d="M309.36,23a5.72,5.72,0,0,0-.59,0h-100a3.88,3.88,0,0,0-.59,0c-9.77.78-17.79,9.34-16.87,19.39.78,8.63,8.41,15.71,17.33,14.76,7.49-.8,13.63-7.5,12.64-15.3-.81-6.34-6.6-11.56-13.29-10.49-5.2.83-9.49,5.74-8.31,11.32a8.24,8.24,0,0,0,3.25,5,7,7,0,0,0,6.21,1.06A6.07,6.07,0,0,0,212.59,46a5,5,0,0,0,0-5.13A3.55,3.55,0,0,0,209.7,39a3.25,3.25,0,0,0-2.41.46,3.5,3.5,0,0,0-1.4,2.71,2.5,2.5,0,0,0,.72,1.79,2.23,2.23,0,0,1-.75-.36,3.51,3.51,0,0,1-1.28-2c-.53-2.49,1.62-4.93,4.2-5.34,3.68-.59,7.07,2.47,7.55,6.18.61,4.83-3.38,9.18-8.2,9.69-6,.64-11.29-4.28-11.83-10.24-.65-7.13,5.2-13.38,12.29-13.94H309c7.09.56,13,6.81,12.3,13.94-.54,6-5.85,10.88-11.83,10.24-4.83-.51-8.82-4.86-8.2-9.69.47-3.71,3.87-6.77,7.54-6.18,2.58.41,4.73,2.85,4.2,5.34a3.51,3.51,0,0,1-1.28,2,2.23,2.23,0,0,1-.75.36,2.5,2.5,0,0,0,.72-1.79,3.47,3.47,0,0,0-1.4-2.71,3.25,3.25,0,0,0-2.41-.46A3.55,3.55,0,0,0,305,40.83,5.06,5.06,0,0,0,305,46a6.07,6.07,0,0,0,3.44,2.76,7.07,7.07,0,0,0,6.21-1.06,8.2,8.2,0,0,0,3.25-5c1.18-5.59-3.11-10.5-8.3-11.32-6.69-1.07-12.49,4.14-13.29,10.49-1,7.8,5.14,14.5,12.63,15.3,8.92.94,16.55-6.13,17.34-14.76.91-10-7.11-18.61-16.88-19.39ZM198.78,0a2.5,2.5,0,0,0-2.5,2.5v5A2.51,2.51,0,0,0,197,9.27l10,10a2.49,2.49,0,0,0,1.77.73h100a2.48,2.48,0,0,0,1.76-.73l10-10a2.52,2.52,0,0,0,.74-1.77v-5a2.5,2.5,0,0,0-2.5-2.5Zm117.5,5.46L307.74,14H209.81l-8.53-8.54V4h115ZM288.78,31h-60a2.5,2.5,0,0,0-2.5,2.5v35a2.48,2.48,0,0,0,1.38,2.23l10,5a2.39,2.39,0,0,0,1.11.27,2.5,2.5,0,0,0,2.51-2.5v-25c0-1.67,5-1.67,5,0v30a2.48,2.48,0,0,0,1.11,2.08l15,10a2.5,2.5,0,0,0,3.89-2.08v-40c0-1.64,5-1.59,5,0v0l.77,45.52a2.54,2.54,0,0,0,1.12,2l14.22,9.48a2.5,2.5,0,0,0,3.89-2.08v-70a2.5,2.5,0,0,0-2.5-2.5Zm-2.51,5V98.83L277,92.67l-.76-44.21v0c0-8.36-15.14-8.32-15,0V83.83l-10-6.67V48.5c0-8.33-15-8.33-15,0v21l-5-2.5V36h55Z" transform="translate(-0.87)"/></svg>